<svg id="third1" xmlns="http://www.w3.org/2000/svg" width="103" height="90" viewBox="0 0 103 90">
  <metadata><?xpacket begin="﻿" id="W5M0MpCehiHzreSzNTczkc9d"?>
<x:xmpmeta xmlns:x="adobe:ns:meta/" x:xmptk="Adobe XMP Core 5.6-c138 79.159824, 2016/09/14-01:09:01        ">
   <rdf:RDF xmlns:rdf="http://www.w3.org/1999/02/22-rdf-syntax-ns#">
      <rdf:Description rdf:about=""/>
   </rdf:RDF>
</x:xmpmeta>
                                                                                                    
                                                                                                    
                                                                                                    
                                                                                                    
                                                                                                    
                                                                                                    
                                                                                                    
                                                                                                    
                                                                                                    
                                                                                                    
                                                                                                    
                                                                                                    
                                                                                                    
                                                                                                    
                                                                                                    
                                                                                                    
                                                                                                    
                                                                                                    
                                                                                                    
                                                                                                    
                           
<?xpacket end="w"?></metadata>
<defs>
    <style>
      .cls-1, .cls-2 {
        fill: #333;
      }

      .cls-1 {
        fill-rule: evenodd;
      }

      .cls-2 {
        font-size: 33px;
        text-anchor: middle;
        font-family: Calibri;
        font-weight: 700;
      }

      .cls-3 {
        text-transform: uppercase;
      }

      .cls-4 {
        font-size: 16px;
      }
    </style>
  </defs>
  <path id="Фигура_1" data-name="Фигура 1" class="cls-1" d="M687.576,1132.65c1.612,1.53,3.223,3.07,4.835,4.6,0.056,0.06.121,0.1,0.177,0.15,1.945,1.9,1.938,1.89,3.894-.06,1.583-1.59,3.187-3.15,4.908-4.85a6.741,6.741,0,0,0-2.766-.21,1.265,1.265,0,0,1-1.5-1.32,41.83,41.83,0,0,0-45.258-37.12,40.516,40.516,0,0,0-22.562,9.1,43.2,43.2,0,0,0-12.411,16.4c-0.347.77-.575,1.6-0.9,2.39a1.3,1.3,0,0,1-1.842.88,1.341,1.341,0,0,1-.582-1.9,44.613,44.613,0,0,1,33.508-28.9,45.5,45.5,0,0,1,15.262-.32,41.393,41.393,0,0,1,13.205,4.29,44.845,44.845,0,0,1,21.665,24.23,59.431,59.431,0,0,1,2.391,8.72,0.987,0.987,0,0,0,1.2.9c1.733-.02,3.467,0,5.2,0a0.824,0.824,0,0,1,.974.43,0.878,0.878,0,0,1-.424.89c-3.783,3.82-7.576,7.62-11.349,11.45-0.471.48-.821,0.59-1.337,0.07-3.665-3.72-7.354-7.41-11.009-11.14-0.37-.37-1.1-0.73-0.781-1.39,0.274-.57.977-0.29,1.491-0.3,1.308-.03,2.619-0.01,3.928-0.01,1.256-.01,1.534-0.34,1.181-1.56a41.412,41.412,0,0,0-2.957-7.92,34.088,34.088,0,0,0-16-15.37,33.005,33.005,0,0,0-8.564-2.65,34.019,34.019,0,0,0-4.926-.42c-1.323-.02-2.057-0.53-2.05-1.38,0.007-.81.861-1.45,2.05-1.41a37.332,37.332,0,0,1,12.049,2.35,36.146,36.146,0,0,1,13.262,8.65,36.612,36.612,0,0,1,9.481,16.78c0.38,1.52.466,3.07,0.905,4.56,0.213,0.72-.256.99-0.9,0.99-1.064.01-2.128,0-3.193,0C687.745,1132.39,687.661,1132.52,687.576,1132.65Zm-64.268,6.78c-2.128-2.12-4.262-4.23-6.379-6.37a0.521,0.521,0,0,0-.868.04q-3.152,3.15-6.309,6.29l0.111,0.33a16.639,16.639,0,0,0,2.234-.02,1.379,1.379,0,0,1,1.774,1.52,28.183,28.183,0,0,0,1.183,5.9,41.214,41.214,0,0,0,7.489,15.07,41.684,41.684,0,0,0,16.474,12.76,41.037,41.037,0,0,0,8.589,2.59,43.09,43.09,0,0,0,14.236.3,38.158,38.158,0,0,0,13.073-4.31,42.254,42.254,0,0,0,19.155-20.84c0.359-.81.627-1.67,0.977-2.48a1.273,1.273,0,0,1,1.757-.86,1.337,1.337,0,0,1,.67,1.87,44.632,44.632,0,0,1-48.973,29.24,43.2,43.2,0,0,1-19.195-8.04,44.687,44.687,0,0,1-15.04-19.22,34.255,34.255,0,0,1-2.473-8.45c-0.086-.61-0.311-1.2-0.438-1.81-0.136-.65-0.628-0.58-1.085-0.59-1.732,0-3.465.01-5.2,0a0.909,0.909,0,0,1-1.018-.36,0.87,0.87,0,0,1,.442-0.98c3.751-3.79,7.522-7.57,11.255-11.37a0.873,0.873,0,0,1,1.506,0c3.735,3.79,7.492,7.57,11.233,11.36a0.962,0.962,0,0,1,.518.96c-0.185.53-.705,0.38-1.107,0.38-1.5.02-3,.01-4.506,0.01-1.244.01-1.4,0.16-1.059,1.46a36.622,36.622,0,0,0,2.054,6.16,34.049,34.049,0,0,0,12.977,15.07,32.82,32.82,0,0,0,12.973,4.85,44.16,44.16,0,0,0,4.58.38,1.475,1.475,0,1,1-.059,2.79,37.012,37.012,0,0,1-32.238-20.63,30.894,30.894,0,0,1-3.238-10.38c-0.259-2.33-.267-2.33,2.173-2.34h1.605C623.212,1139.62,623.26,1139.53,623.308,1139.43Z" transform="translate(-604 -1091)"/>
  <text id="_14_дней" data-name="14 дней" class="cls-2" x="52.667" y="46.331"><tspan class="cls-3">14</tspan><tspan class="cls-4" x="52.667" dy="16">дней</tspan></text>
</svg>
