<svg xmlns="http://www.w3.org/2000/svg" width="146.69" height="80.06" viewBox="0 0 146.69 80.06">
  <metadata><?xpacket begin="﻿" id="W5M0MpCehiHzreSzNTczkc9d"?>
<x:xmpmeta xmlns:x="adobe:ns:meta/" x:xmptk="Adobe XMP Core 5.6-c138 79.159824, 2016/09/14-01:09:01        ">
   <rdf:RDF xmlns:rdf="http://www.w3.org/1999/02/22-rdf-syntax-ns#">
      <rdf:Description rdf:about=""/>
   </rdf:RDF>
</x:xmpmeta>
                                                                                                    
                                                                                                    
                                                                                                    
                                                                                                    
                                                                                                    
                                                                                                    
                                                                                                    
                                                                                                    
                                                                                                    
                                                                                                    
                                                                                                    
                                                                                                    
                                                                                                    
                                                                                                    
                                                                                                    
                                                                                                    
                                                                                                    
                                                                                                    
                                                                                                    
                                                                                                    
                           
<?xpacket end="w"?></metadata>
<defs>
    <style>
      .cls-1 {
        fill: #333;
        fill-rule: evenodd;
      }
    </style>
  </defs>
  <path id="Фигура_2_копия" data-name="Фигура 2 копия" class="cls-1" d="M971.914,1180.95c-14.806-.23-29.615-0.2-44.422-0.31-2.3-.02-4.6-0.35-6.895-0.54-2.391-.2-3.617-2.01-4.431-4.03a16.081,16.081,0,0,1-1.107-5.3,65.878,65.878,0,0,1,2.034-18.91,15.486,15.486,0,0,1,2.225-5.23c1.626-2.34,4.3-2.44,5.973-.16a16.886,16.886,0,0,1,1.211,1.87,8.32,8.32,0,0,0,6.508,4.36,29.846,29.846,0,0,0,9.843-.34c0.919-.18,1.252-0.41.581-1.44-1.589-2.43-.954-5.01,0-7.49a15.929,15.929,0,0,1,2.725-4.54c1.771-2.11,3.439-2.46,5.777-1.01,1.832,1.13,3.581,2.4,5.345,3.64,3.517,2.46,7.648,3.53,11.605,4.99,7.669,2.84,15.318,5.72,22.746,9.13a5.27,5.27,0,0,0,2.474.46,49.167,49.167,0,0,1,9.692.85,19.194,19.194,0,0,1,4.97,1.52c3.33,1.56,5.01,4.34,5.85,7.75a9.8,9.8,0,0,1,.28,3.97c-0.58,3.54-3.13,5.15-6.1,6.32a56.058,56.058,0,0,1-11.151,2.89,101.413,101.413,0,0,1-12.861,1.5C980.505,1181.1,976.206,1180.95,971.914,1180.95Zm2.75-1.86c2.027,0,4.061.12,6.078-.02,5.026-.35,10.051-0.64,15.042-1.45a55,55,0,0,0,13.326-3.47,5.929,5.929,0,0,0,3.56-7.69c-0.2-.69-0.54-0.98-1.19-0.42a8.544,8.544,0,0,1-2.31,1.32,63.377,63.377,0,0,1-16.061,4.02,121.544,121.544,0,0,1-12.233,1.01c-6.375.16-12.7-.58-19.045-0.82-5.135-.19-10.283-0.15-15.422-0.07-6.981.11-13.95-.12-20.906-0.61a28.616,28.616,0,0,1-6.02-.65c-1.983-.55-2.288-0.23-2.066,1.87,0.539,5.08,2.074,6.41,6.54,6.27,4.891-.15,9.782.15,14.676,0.13,2.906-.02,5.821.24,8.738,0.21C956.473,1178.62,965.567,1178.97,974.664,1179.09Zm2.925-8.72c0-.13,0-0.27,0-0.4,3.247,0,6.5.07,9.739-.03,1.638-.06,3.264-0.44,4.9-0.65a0.982,0.982,0,0,0,.894-1.4,20.051,20.051,0,0,0-.87-3.22c-0.335-.81-0.447-1.84-1.512-2.22-1.323-.48-2.625-1.01-3.943-1.5l-26.888-9.99a1.418,1.418,0,0,0-1.566.2c-3.438,2.81-6.977,5.54-9.771,9a8.06,8.06,0,0,0-1.937,5.41c0.113,2.89.859,3.6,3.716,3.62,3.111,0.02,6.234-.1,9.328.14C965.647,1169.8,971.619,1170.04,977.589,1170.37Zm-42.538-1.17c3.873,0,6.514-.03,9.155.02,0.917,0.02,1.147-.17.817-1.09a8.9,8.9,0,0,1,1.365-8.52c2.245-3.24,5.344-5.6,8.318-8.09,0.587-.5,1.625-0.95,1.489-1.68-0.12-.64-1.311-0.56-1.936-0.93-1.414-.83-2.3-0.24-3.225.81a15.169,15.169,0,0,1-4.84,3.55c-3.958,1.93-8.178,1.92-12.433,1.64a10.691,10.691,0,0,1-5.456-1.68,1.522,1.522,0,0,0-1.992-.03c-4.513,3.08-7.655,7.08-8.775,12.48-0.44,2.11-.235,2.41,1.962,2.6C925.083,1168.78,930.655,1169.49,935.051,1169.2Zm61.451-6.83c-1.753-2.86-4.43-4.42-7.357-5.65a0.867,0.867,0,0,0-1.276.43c-0.341.61-.638,1.46-1.673,0.93-0.913-.48-0.6-1.16-0.269-1.79a0.749,0.749,0,0,0-.518-1.18c-1.521-.61-3.051-1.2-4.571-1.81a1.237,1.237,0,0,0-1.783.56c-0.265.5-.494,1.07-1.264,0.72a1.042,1.042,0,0,1-.633-1.57c0.432-.89-0.029-1.22-0.83-1.5-1.2-.4-2.373-0.88-3.53-1.38-0.955-.42-1.7-0.44-2.164.66a0.876,0.876,0,0,1-1.321.6,0.975,0.975,0,0,1-.527-1.49c0.539-.95.045-1.31-0.811-1.56a30.008,30.008,0,0,1-3.731-1.27c-0.878-.39-1.386-0.39-1.715.58a0.919,0.919,0,0,1-1.348.6,0.89,0.89,0,0,1-.5-1.45c0.2-.34.331-0.78-0.156-0.94-1.668-.54-3.324-1.46-5.13-0.42-0.426.24-1.129,0.27-1.111,0.91,0.016,0.57.678,0.59,1.082,0.74,5.534,2.08,11.081,4.13,16.621,6.19,4.221,1.58,8.433,3.17,12.657,4.74C988.588,1159.48,992.547,1160.92,996.5,1162.37Zm-0.71-4.2a20.123,20.123,0,0,1,5.688,8.71c0.27,0.77.84,0.61,1.39,0.44a48.552,48.552,0,0,0,6.35-2.3c2.07-.99,2.23-2.03.55-3.51a3.594,3.594,0,0,0-.66-0.52C1005.09,1158.85,1000.7,1158.41,995.792,1158.17Zm-40.12-15.15a25.16,25.16,0,0,0-5.6-3.72,1.556,1.556,0,0,0-1.792.43,10.5,10.5,0,0,0-2.464,3.53c-0.869,1.91-1.633,3.87-.9,6.03,0.491,1.44,1.248,1.7,2.5.86a18.113,18.113,0,0,0,4.1-3.97A9.184,9.184,0,0,1,955.672,1143.02Zm-37.753,15.69a26.022,26.022,0,0,1,7.209-7.17c0.336-.22.627-0.49,0.352-0.91a15.392,15.392,0,0,0-2.179-3.23,1.3,1.3,0,0,0-2.16.2,6.829,6.829,0,0,0-.884,1.4A42.782,42.782,0,0,0,917.919,1158.71Zm78.289,10.07c0.613-.12,1.434-0.34,2.269-0.43s1.014-.42.82-1.2c-0.356-1.43-2.955-3.27-4.479-3.12-0.5.05-.5,0.3-0.357,0.67a8.726,8.726,0,0,1,.613,3.39C995.073,1168.69,995.418,1168.9,996.208,1168.78Zm21.592-7.97c-11.44-9.4-23.04-18.61-34.553-27.92-1.785-1.45-3.376-3.14-5.052-4.72-1.746-1.65-1.577-3.83-.956-5.92a16.2,16.2,0,0,1,2.434-4.83,66,66,0,0,1,13.371-13.52,15.526,15.526,0,0,1,5-2.71c2.731-.81,4.871.77,4.771,3.6a18.338,18.338,0,0,1-.22,2.22,8.342,8.342,0,0,0,2.37,7.46,29.712,29.712,0,0,0,7.91,5.87c0.83,0.43,1.24.46,1.35-.76,0.28-2.9,2.38-4.51,4.67-5.86a15.885,15.885,0,0,1,4.96-1.85c2.7-.55,4.23.22,5.15,2.8,0.73,2.03,1.31,4.11,1.92,6.18,1.21,4.12,3.78,7.53,5.96,11.14,4.23,6.99,8.42,14.01,12.1,21.31a5.306,5.306,0,0,0,1.65,1.9,48.674,48.674,0,0,1,7.05,6.71,19.411,19.411,0,0,1,2.95,4.28c1.63,3.3,1.21,6.52-.26,9.7a9.686,9.686,0,0,1-2.26,3.29c-2.66,2.41-5.65,2.08-8.7,1.14a56.582,56.582,0,0,1-10.53-4.69,101.751,101.751,0,0,1-10.99-6.83C1024.43,1166.28,1021.16,1163.48,1017.8,1160.81Zm3.31,0.26c1.58,1.26,3.1,2.62,4.77,3.77,4.14,2.86,8.26,5.76,12.67,8.24a55.515,55.515,0,0,0,12.58,5.59,5.944,5.944,0,0,0,7.58-3.8c0.27-.66.18-1.1-0.67-1.07a8.123,8.123,0,0,1-2.63-.41,62.943,62.943,0,0,1-15.07-6.86,122.465,122.465,0,0,1-10.2-6.83c-5.08-3.85-9.57-8.37-14.38-12.51-3.9-3.34-7.95-6.53-12.02-9.67-5.529-4.26-10.836-8.78-15.975-13.49a29.452,29.452,0,0,1-4.3-4.26c-1.2-1.67-1.645-1.61-2.78.17-2.744,4.31-2.37,6.3,1.209,8.98,3.92,2.93,7.555,6.21,11.4,9.24,2.281,1.8,4.4,3.82,6.7,5.61C1007.18,1149.36,1014.07,1155.3,1021.11,1161.07Zm7.72-5c0.08-.1.17-0.21,0.26-0.31,2.54,2.02,5.03,4.1,7.63,6.04,1.32,0.98,2.83,1.69,4.24,2.55a0.984,0.984,0,0,0,1.57-.54,21.136,21.136,0,0,0,1.33-3.06c0.24-.84.79-1.72,0.2-2.68-0.74-1.2-1.43-2.42-2.16-3.63q-7.395-12.285-14.8-24.56a1.419,1.419,0,0,0-1.35-.82c-4.44.05-8.91-.02-13.25,0.95a8.027,8.027,0,0,0-4.88,3.02c-1.72,2.33-1.58,3.35.64,5.15,2.43,1.95,4.94,3.81,7.21,5.92C1019.85,1148.18,1024.37,1152.09,1028.83,1156.07Zm-32.543-27.42c3.029,2.42,5.113,4.04,7.153,5.72,0.7,0.58,1,.58,1.31-0.34a8.925,8.925,0,0,1,6.38-5.82c3.78-1.13,7.67-1.04,11.55-1.14,0.77-.02,1.86.27,2.21-0.39,0.31-.57-0.68-1.25-0.94-1.93-0.58-1.53-1.64-1.62-3.02-1.37a15.181,15.181,0,0,1-6-.25c-4.3-.96-7.59-3.59-10.75-6.46a10.826,10.826,0,0,1-3.22-4.71,1.523,1.523,0,0,0-1.537-1.27c-5.446-.4-10.4.77-14.636,4.29-1.664,1.38-1.685,1.74-.089,3.26C988.755,1122.11,992.673,1126.13,996.287,1128.65Zm52.323,32.95c0.41-3.33-.71-6.22-2.24-9a0.865,0.865,0,0,0-1.26-.47c-0.65.27-1.41,0.75-1.89-.31-0.42-.94.26-1.28,0.91-1.57,0.67-.3.61-0.73,0.32-1.24-0.81-1.43-1.63-2.84-2.44-4.27a1.248,1.248,0,0,0-1.75-.67c-0.51.22-1.05,0.53-1.44-.22a1.047,1.047,0,0,1,.49-1.62c0.89-.44.74-0.98,0.28-1.69-0.68-1.07-1.3-2.17-1.89-3.29-0.49-.92-1.06-1.4-2.11-0.82a0.882,0.882,0,0,1-1.41-.36,0.977,0.977,0,0,1,.52-1.49c1.01-.41.85-1,0.34-1.73a31.645,31.645,0,0,1-2.13-3.32c-0.44-.85-0.84-1.17-1.7-0.61a0.915,0.915,0,0,1-1.43-.38,0.883,0.883,0,0,1,.51-1.44c0.37-.15.74-0.4,0.46-0.83-0.96-1.47-1.69-3.21-3.75-3.53-0.48-.08-1.05-0.49-1.43.02-0.35.46,0.16,0.88,0.38,1.25,3.03,5.08,6.1,10.13,9.14,15.2,2.32,3.86,4.62,7.74,6.95,11.59C1044.22,1154.41,1046.42,1158,1048.61,1161.6Zm2.06-3.73a20.065,20.065,0,0,1-.98,10.36c-0.27.77,0.28,1,.82,1.21a48.019,48.019,0,0,0,6.39,2.16c2.24,0.51,3.02-.2,2.62-2.41a3.632,3.632,0,0,0-.19-0.82C1057.52,1164.19,1054.35,1161.12,1050.67,1157.87Zm-21.94-36.85a25.392,25.392,0,0,0-2.06-6.4,1.565,1.565,0,0,0-1.67-.78,10.743,10.743,0,0,0-4.13,1.22c-1.87.96-3.69,2.02-4.46,4.16-0.51,1.44-.08,2.11,1.42,2.23a18.058,18.058,0,0,0,5.68-.55A9.224,9.224,0,0,1,1028.73,1121.02Zm-39.307-11.25a25.829,25.829,0,0,1,10.107-1.11c0.4,0.03.8,0,.84-0.5a15.3,15.3,0,0,0,.31-3.88,1.3,1.3,0,0,0-1.81-1.19,6.613,6.613,0,0,0-1.568.55A42.39,42.39,0,0,0,989.423,1109.77Zm54.957,56.66c0.56,0.29,1.34.63,2.05,1.08s1.05,0.3,1.39-.43c0.61-1.34-.28-4.4-1.56-5.23-0.43-.28-0.59-0.08-0.7.3a8.819,8.819,0,0,1-1.63,3.03C1043.55,1165.65,1043.69,1166.03,1044.38,1166.43Z" transform="translate(-915 -1100.97)"/>
</svg>
